<svg width="120" height="65" viewBox="0 0 120 65" fill="none" xmlns="http://www.w3.org/2000/svg">
<g clip-path="url(#clip0_2283_2)">
<path d="M51.813 7.03302C31.226 7.03302 14.535 23.723 14.535 44.311H89.092C89.092 23.723 72.401 7.03302 51.813 7.03302Z" fill="white"/>
<path d="M66.14 17.497C66.172 16.538 67.103 15.882 67.959 15.45C70.97 13.934 74.345 13.191 77.716 13.109C81.378 13.019 85.554 14.042 87.265 17.281C87.942 18.559 88.14 20.038 88.196 21.483C88.335 25.018 87.681 28.582 86.292 31.837C81.145 25.254 74.26 19.697 66.14 17.716" fill="white"/>
<path d="M96.827 25.554L95.304 29.809C95.057 30.497 95.753 31.148 96.425 30.855L100.788 28.948C102.956 30.153 105.427 30.706 107.902 30.54C115.034 30.074 120.437 23.914 119.972 16.782C119.507 9.65101 113.346 4.24701 106.215 4.71301C99.084 5.17801 93.68 11.339 94.145 18.47C94.319 21.15 95.299 23.585 96.829 25.554H96.827Z" fill="#898989"/>
<path d="M105.423 18.27C105.536 17.864 105.695 17.537 105.902 17.288C106.111 17.039 106.393 16.804 106.748 16.58C107.04 16.392 107.28 16.218 107.463 16.059C107.646 15.899 107.794 15.72 107.905 15.525C108.015 15.33 108.069 15.114 108.069 14.883C108.069 14.653 108.011 14.43 107.895 14.242C107.781 14.056 107.617 13.906 107.421 13.809C107.221 13.708 107 13.659 106.76 13.659C106.52 13.659 106.283 13.713 106.069 13.821C105.858 13.929 105.686 14.087 105.557 14.296C105.545 14.315 105.533 14.333 105.524 14.352C105.292 14.769 104.852 15.027 104.374 15.027H104.32C103.291 15.027 102.642 13.88 103.211 13.024C103.216 13.019 103.218 13.012 103.223 13.008C103.589 12.465 104.081 12.063 104.696 11.797C105.312 11.534 106.008 11.4 106.779 11.4C107.604 11.4 108.335 11.529 108.977 11.788C109.616 12.046 110.114 12.427 110.472 12.935C110.829 13.44 111.005 14.047 111.005 14.752C111.005 15.212 110.93 15.624 110.777 15.988C110.624 16.352 110.41 16.674 110.131 16.954C109.853 17.234 109.513 17.492 109.108 17.727C108.789 17.92 108.53 18.11 108.337 18.299C108.142 18.487 107.999 18.708 107.902 18.961C107.806 19.215 107.757 19.521 107.752 19.876V20.111H105.256V19.876C105.256 19.211 105.312 18.677 105.425 18.27H105.423ZM105.78 23.82C105.548 23.684 105.353 23.492 105.216 23.26C105.077 23.028 105.011 22.771 105.014 22.492C105.009 22.217 105.077 21.961 105.216 21.73C105.355 21.5 105.543 21.314 105.78 21.178C106.017 21.042 106.276 20.973 106.551 20.973C106.826 20.973 107.073 21.042 107.31 21.178C107.548 21.314 107.736 21.5 107.874 21.733C108.013 21.968 108.083 22.219 108.088 22.492C108.085 22.762 108.012 23.026 107.874 23.258C107.736 23.493 107.548 23.679 107.31 23.82C107.073 23.961 106.819 24.029 106.551 24.029C106.283 24.029 106.017 23.958 105.78 23.82ZM64.461 14.606C65.075 13.868 64.816 12.758 64.461 11.868C63.22 8.73201 61.194 5.93501 58.731 3.63201C56.056 1.12801 52.255 -0.883993 48.824 0.397007C47.467 0.903007 46.337 1.87401 45.333 2.91701C42.872 5.47801 41.006 8.55001 39.868 11.915C48.093 10.42 56.928 10.85 64.309 14.77" fill="white"/>
<path d="M53.72 24.739C53.72 23.056 55.084 21.693 56.766 21.693C58.448 21.693 59.812 23.056 59.812 24.739C59.812 26.421 58.448 27.785 56.766 27.785C55.084 27.785 53.72 26.421 53.72 24.739Z" fill="#5E5E5E"/>
<path d="M65.213 29.466C65.213 27.783 66.577 26.419 68.26 26.419C69.942 26.419 71.306 27.783 71.306 29.466C71.306 31.148 69.942 32.512 68.26 32.512C66.577 32.512 65.213 31.148 65.213 29.466Z" fill="#5E5E5E"/>
<path d="M60.722 32.327C59.382 31.866 58.521 30.836 58.799 30.027C59.078 29.218 60.39 28.936 61.73 29.398C63.071 29.859 63.932 30.889 63.653 31.697C63.375 32.506 62.063 32.788 60.722 32.327Z" fill="#5E5E5E"/>
<path d="M3.38 44.313H100.151V64.4H3.38V44.313Z" fill="#5E5E5E"/>
<path d="M2.115 52.039C0.947 52.039 0 51.092 0 49.924V46.429C0 45.26 0.947 44.313 2.115 44.313H101.415C102.584 44.313 103.531 45.26 103.531 46.429V49.924C103.531 51.092 102.584 52.039 101.415 52.039H2.115Z" fill="#A3A3A3"/>
<path d="M38.096 42.487C39.213 43.432 39.213 45.002 38.096 45.947C36.662 47.16 34.469 48.563 32.013 48.563C29.557 48.563 27.366 47.157 25.93 45.947C24.814 45.002 24.814 43.432 25.93 42.487C27.364 41.274 29.557 39.871 32.013 39.871C34.469 39.871 36.66 41.277 38.096 42.487ZM69.773 42.487C70.89 43.432 70.89 45.002 69.773 45.947C68.34 47.16 66.147 48.563 63.69 48.563C61.234 48.563 59.044 47.157 57.607 45.947C56.491 45.002 56.491 43.432 57.607 42.487C59.041 41.274 61.234 39.871 63.69 39.871C66.147 39.871 68.337 41.277 69.773 42.487Z" fill="#E2E2E2"/>
</g>
<defs>
<clipPath id="clip0_2283_2">
<rect width="120" height="64.4" fill="white"/>
</clipPath>
</defs>
</svg>
