<?xml version="1.0" encoding="UTF-8"?><svg id="Layer_1" xmlns="http://www.w3.org/2000/svg" viewBox="0 0 550 550"><defs><style>.cls-1{fill:#898989;}.cls-2{opacity:.14;}.cls-3{fill:#fff;}.cls-4{fill:#5e5e5e;}.cls-5{fill:#e2e2e2;}.cls-6{fill:#a3a3a3;}</style></defs><g class="cls-2"><path class="cls-3" d="M240.19,173.93c-87.59,0-158.6,71.01-158.6,158.6h317.2c0-87.59-71.01-158.6-158.6-158.6Z"/><path class="cls-3" d="M301.14,218.45c.14-4.08,4.1-6.87,7.74-8.71,12.81-6.45,27.17-9.61,41.51-9.96,15.58-.38,33.35,3.97,40.63,17.75,2.88,5.44,3.72,11.73,3.96,17.88.59,15.04-2.19,30.2-8.1,44.05-21.9-28.01-51.19-51.65-85.74-60.08"/><path class="cls-1" d="M431.7,252.73l-6.48,18.1c-1.05,2.93,1.91,5.7,4.77,4.45l18.56-8.11c8.92,4.95,19.33,7.49,30.27,6.77,30.34-1.98,53.33-28.19,51.35-58.53-1.98-30.34-28.19-53.33-58.53-51.35-30.34,1.98-53.33,28.19-51.35,58.53.74,11.4,4.91,21.76,11.42,30.14Z"/><path class="cls-3" d="M468.27,221.74c.48-1.73,1.16-3.12,2.04-4.18.89-1.06,2.09-2.06,3.6-3.01,1.24-.8,2.26-1.54,3.04-2.22.78-.68,1.41-1.44,1.88-2.27.47-.83.7-1.75.7-2.73s-.25-1.93-.74-2.73c-.49-.8-1.17-1.41-2.02-1.84-.85-.43-1.79-.64-2.81-.64s-2.03.23-2.94.69c-.9.46-1.63,1.13-2.18,2.02-.05.08-.1.16-.14.24-.99,1.78-2.86,2.87-4.89,2.87h-.23c-4.38,0-7.14-4.88-4.72-8.52.02-.02.03-.05.05-.07,1.56-2.31,3.65-4.02,6.27-5.15,2.62-1.12,5.58-1.69,8.86-1.69,3.51,0,6.62.55,9.35,1.65,2.72,1.1,4.84,2.72,6.36,4.88,1.52,2.15,2.27,4.73,2.27,7.73,0,1.96-.32,3.71-.97,5.26-.65,1.55-1.56,2.92-2.75,4.11-1.18,1.19-2.63,2.29-4.35,3.29-1.36.82-2.46,1.63-3.28,2.43-.83.8-1.44,1.74-1.85,2.82-.41,1.08-.62,2.38-.64,3.89v1h-10.62v-1c0-2.83.24-5.1.72-6.83ZM469.79,245.35c-1.01-.6-1.81-1.39-2.4-2.38-.59-.99-.87-2.08-.86-3.27-.02-1.17.27-2.26.86-3.24s1.39-1.77,2.4-2.35c1.01-.58,2.11-.87,3.28-.87s2.22.29,3.23.87c1.01.58,1.81,1.37,2.4,2.36.59,1,.89,2.07.91,3.23-.02,1.17-.32,2.26-.91,3.26-.59,1-1.39,1.79-2.4,2.39-1.01.6-2.09.89-3.23.89s-2.27-.3-3.28-.89Z"/><path class="cls-3" d="M294,206.15c2.61-3.14,1.51-7.86,0-11.65-5.28-13.34-13.9-25.24-24.38-35.04-11.38-10.65-27.55-19.21-42.15-13.76-5.77,2.15-10.58,6.28-14.85,10.72-10.44,10.84-18.44,24.01-23.25,38.28,34.99-6.36,72.58-4.53,103.98,12.15"/><circle class="cls-4" cx="261.26" cy="249.26" r="12.96"/><circle class="cls-4" cx="310.16" cy="269.37" r="12.96"/><ellipse class="cls-4" cx="280.24" cy="275.32" rx="6.59" ry="10.92" transform="translate(-71.29 450.71) rotate(-71.01)"/><rect class="cls-4" x="34.13" y="332.54" width="411.71" height="85.46"/><rect class="cls-6" x="19.75" y="332.54" width="440.47" height="32.87" rx="9" ry="9"/><path class="cls-5" d="M181.83,324.77c4.75,4.02,4.75,10.7,0,14.72-6.1,5.16-15.43,11.13-25.88,11.13s-19.77-5.98-25.88-11.13c-4.75-4.02-4.75-10.7,0-14.72,6.1-5.16,15.43-11.13,25.88-11.13s19.77,5.98,25.88,11.13Z"/><path class="cls-5" d="M316.6,324.77c4.75,4.02,4.75,10.7,0,14.72-6.1,5.16-15.43,11.13-25.88,11.13s-19.77-5.98-25.88-11.13c-4.75-4.02-4.75-10.7,0-14.72,6.1-5.16,15.43-11.13,25.88-11.13s19.77,5.98,25.88,11.13Z"/></g></svg>