<?xml version="1.0" encoding="UTF-8"?><svg id="Layer_1" xmlns="http://www.w3.org/2000/svg" xmlns:xlink="http://www.w3.org/1999/xlink" viewBox="0 0 550 550"><defs><style>.cls-1{fill:url(#linear-gradient-2);}.cls-2{fill:#fff;}.cls-3{fill:#12656b;}.cls-4{fill:#fdd43c;}.cls-5{fill:#caefd7;}.cls-6{filter:url(#drop-shadow-11);}.cls-7{fill:#392210;}.cls-8{filter:url(#drop-shadow-12);}.cls-9{fill:url(#linear-gradient);}.cls-10{fill:#00ca50;}</style><filter id="drop-shadow-11" x="30.03" y="123.03" width="335" height="335" filterUnits="userSpaceOnUse"><feOffset dx="7.92" dy="7.92"/><feGaussianBlur result="blur" stdDeviation="5.66"/><feFlood flood-color="#000" flood-opacity=".04"/><feComposite in2="blur" operator="in"/><feComposite in="SourceGraphic"/></filter><filter id="drop-shadow-12" x="272.03" y="180.03" width="256" height="278" filterUnits="userSpaceOnUse"><feOffset dx="7.92" dy="7.92"/><feGaussianBlur result="blur-2" stdDeviation="5.66"/><feFlood flood-color="#000" flood-opacity=".04"/><feComposite in2="blur-2" operator="in"/><feComposite in="SourceGraphic"/></filter><linearGradient id="linear-gradient" x1="336.11" y1="267.83" x2="353.24" y2="284.96" gradientUnits="userSpaceOnUse"><stop offset="0" stop-color="#3f1c00"/><stop offset=".53" stop-color="#3d1c00"/><stop offset=".71" stop-color="#361e03"/><stop offset=".84" stop-color="#2c2207"/></linearGradient><linearGradient id="linear-gradient-2" x1="383.89" y1="275.35" x2="401.02" y2="292.48" xlink:href="#linear-gradient"/></defs><g class="cls-6"><circle class="cls-10" cx="189.43" cy="282.82" r="150.18"/><circle class="cls-5" cx="189.43" cy="282.82" r="123.72"/><path class="cls-3" d="M195.43,301.77h-77.16c-3.95,0-7.15-3.2-7.15-7.15s3.2-7.15,7.15-7.15h70.01v-78.13c0-3.95,3.2-7.15,7.15-7.15s7.15,3.2,7.15,7.15v85.28c0,3.95-3.2,7.15-7.15,7.15Z"/></g><g class="cls-8"><path class="cls-2" d="M475.22,248.77c-.12-10.92-2.37-21.82-6.61-31.89-1.98-4.69-4.46-9.31-8.27-12.7-9.65-8.56-24.68-6.76-36.64-1.94-6.35,2.57-12.42,5.88-17.98,9.88-3.6-.44-7.25-.71-10.95-.79-5.2-6.16-11.55-11.34-18.52-15.41-9.51-5.55-21.99-8.91-31.2-2.86-3.63,2.39-6.3,5.99-8.55,9.71-5.49,9.1-8.94,19.44-10,30.02.04-.02.08-.03.12-.05-27.48,20.17-45.33,52.71-45.33,89.41,0,61.22,49.63,110.85,110.85,110.85s110.85-49.63,110.85-110.85c0-28.14-10.49-53.83-27.78-73.38Z"/><circle class="cls-9" cx="344.68" cy="276.4" r="12.11"/><circle class="cls-1" cx="392.46" cy="283.91" r="12.11"/><ellipse class="cls-7" cx="365.06" cy="293.18" rx="6.16" ry="10.2" transform="translate(32.17 622.44) rotate(-83.45)"/></g><path class="cls-4" d="M504.41,249.52c-2.01,0-3.84-1.35-4.36-3.39-.61-2.41.84-4.86,3.25-5.47l16.47-4.2c2.41-.62,4.86.84,5.47,3.25s-.84,4.86-3.25,5.47l-16.47,4.2c-.37.1-.75.14-1.12.14Z"/><path class="cls-4" d="M485.65,218.8c-1.06,0-2.12-.37-2.98-1.13-1.86-1.65-2.04-4.49-.39-6.35l11.26-12.74c1.64-1.86,4.49-2.04,6.35-.39,1.86,1.65,2.04,4.49.39,6.35l-11.26,12.74c-.89,1.01-2.13,1.52-3.37,1.52Z"/><path class="cls-4" d="M494.78,233.73c-1.52,0-3-.77-3.84-2.16-1.3-2.12-.63-4.89,1.49-6.19l21.76-13.29c2.12-1.29,4.89-.63,6.19,1.49,1.3,2.12.63,4.89-1.49,6.19l-21.76,13.29c-.73.45-1.54.66-2.34.66Z"/></svg>