<?xml version="1.0" encoding="UTF-8"?><svg id="Layer_1" xmlns="http://www.w3.org/2000/svg" xmlns:xlink="http://www.w3.org/1999/xlink" viewBox="0 0 550 550"><defs><style>.cls-1{fill:url(#linear-gradient-2);}.cls-2{fill:#ff6a2d;}.cls-3{fill:#8dde8f;}.cls-4{fill:url(#linear-gradient);}.cls-5{fill:#ff5bc7;}</style><linearGradient id="linear-gradient" x1="130.94" y1="348.96" x2="316.22" y2="163.68" gradientTransform="translate(34.81 16.49) rotate(-7.57)" gradientUnits="userSpaceOnUse"><stop offset="0" stop-color="#6386ff"/><stop offset=".49" stop-color="#6486ff"/><stop offset=".67" stop-color="#6b8aff"/><stop offset=".76" stop-color="#738eff"/></linearGradient><linearGradient id="linear-gradient-2" x1="-59.97" y1="-450.33" x2="125.31" y2="-635.6" gradientTransform="translate(283.99 -197.49) rotate(-180)" xlink:href="#linear-gradient"/></defs><path class="cls-3" d="M161.15,76.92l-3.89,9.39c-1.74,4.21-1.3,9,1.18,12.82l5.53,8.52c6.24,9.62-1.26,22.22-12.69,21.32l-10.13-.79c-4.54-.36-8.96,1.54-11.83,5.08l-6.4,7.89c-7.22,8.91-21.52,5.67-24.2-5.48l-2.37-9.88c-1.06-4.43-4.24-8.05-8.49-9.68l-9.48-3.64c-10.7-4.11-12.05-18.72-2.27-24.71l8.66-5.31c3.88-2.38,6.34-6.52,6.58-11.07l.54-10.15c.6-11.45,14.08-17.24,22.8-9.79l7.73,6.6c3.46,2.96,8.16,4.02,12.56,2.84l9.81-2.63c11.08-2.96,20.75,8.06,16.36,18.66Z"/><path class="cls-5" d="M99.58,175.79l-4.33,3.58c-1.94,1.61-2.97,4.07-2.75,6.58l.5,5.6c.56,6.32-6.37,10.54-11.73,7.14l-4.75-3.01c-2.13-1.35-4.78-1.57-7.1-.58l-5.17,2.2c-5.84,2.49-12-2.8-10.42-8.95l1.4-5.45c.63-2.44.01-5.03-1.64-6.93l-3.69-4.24c-4.17-4.78-1.04-12.27,5.29-12.67l5.61-.35c2.52-.16,4.79-1.54,6.09-3.71l2.89-4.82c3.26-5.44,11.35-4.79,13.69,1.12l2.07,5.23c.93,2.34,2.95,4.08,5.41,4.64l5.48,1.26c6.19,1.42,8.06,9.32,3.17,13.36Z"/><path class="cls-5" d="M460.4,470.58l-8.06-6.18c-3.61-2.77-8.36-3.58-12.69-2.17l-9.66,3.14c-10.91,3.55-21.14-6.95-17.32-17.77l3.38-9.58c1.52-4.29.82-9.06-1.85-12.74l-5.97-8.22c-6.74-9.28.08-22.26,11.54-21.97l10.16.26c4.55.12,8.87-2.02,11.55-5.7l5.97-8.22c6.74-9.28,21.19-6.8,24.46,4.19l2.89,9.74c1.3,4.37,4.66,7.81,8.99,9.22l9.66,3.14c10.91,3.54,13.02,18.05,3.57,24.56l-8.37,5.76c-3.75,2.58-5.99,6.84-5.99,11.4v10.16c0,11.47-13.14,17.96-22.25,10.99Z"/><circle class="cls-2" cx="479.74" cy="333.81" r="20.46"/><circle class="cls-3" cx="376.78" cy="466.69" r="15.56"/><path class="cls-4" d="M142.11,292.74l304.56-40.49c-11.34-83.93-88.49-142.89-172.48-131.72-84,11.17-143.07,88.23-132.08,172.21Z"/><path class="cls-1" d="M404.94,313.82H97.69c.18,84.7,68.89,153.3,153.62,153.3s153.45-68.61,153.62-153.3Z"/></svg>