<?xml version="1.0" encoding="UTF-8"?><svg id="Layer_1" xmlns="http://www.w3.org/2000/svg" xmlns:xlink="http://www.w3.org/1999/xlink" viewBox="0 0 550 550"><defs><style>.cls-1{filter:url(#drop-shadow-7);}.cls-1,.cls-2{fill:#8f7eff;}.cls-3{fill:url(#linear-gradient-2);}.cls-2{filter:url(#drop-shadow-8);}.cls-4{fill:#fff;}.cls-5{fill:#b83560;}.cls-6{fill:url(#linear-gradient-3);}.cls-7{fill:url(#linear-gradient);}.cls-8{fill:#f7f7f7;}</style><filter id="drop-shadow-7" x="59" y="71" width="379" height="442" filterUnits="userSpaceOnUse"><feOffset dx="7" dy="7"/><feGaussianBlur result="blur" stdDeviation="5"/><feFlood flood-color="#000" flood-opacity=".04"/><feComposite in2="blur" operator="in"/><feComposite in="SourceGraphic"/></filter><filter id="drop-shadow-8" x="59" y="71" width="379" height="442" filterUnits="userSpaceOnUse"><feOffset dx="7" dy="7"/><feGaussianBlur result="blur-2" stdDeviation="5"/><feFlood flood-color="#000" flood-opacity=".04"/><feComposite in2="blur-2" operator="in"/><feComposite in="SourceGraphic"/></filter><linearGradient id="linear-gradient" x1="330.27" y1="-441.57" x2="382.97" y2="-388.88" gradientTransform="translate(62.74 606.83) rotate(8.3)" gradientUnits="userSpaceOnUse"><stop offset=".11" stop-color="#e9427c"/><stop offset=".37" stop-color="#e93e74"/><stop offset=".76" stop-color="#e93560"/></linearGradient><linearGradient id="linear-gradient-2" x1="349.29" y1="872" x2="456.61" y2="979.32" gradientTransform="translate(-136.61 -530.78) rotate(-6.62)" xlink:href="#linear-gradient"/><linearGradient id="linear-gradient-3" x1="349.29" y1="872" x2="456.61" y2="979.32" gradientTransform="translate(-136.61 -530.78) rotate(-6.62)" xlink:href="#linear-gradient"/></defs><path class="cls-1" d="M191.05,80.42l217.97,75.63c5.22,1.81,7.98,7.51,6.17,12.73l-109.48,315.19c-1.81,5.21-7.5,7.97-12.71,6.17l-218.9-75.56c-5.24-1.81-8.01-7.53-6.18-12.76L178.33,86.57c1.82-5.2,7.51-7.95,12.72-6.14Z"/><path class="cls-2" d="M191.05,80.42l217.97,75.63c5.22,1.81,7.98,7.51,6.17,12.73l-109.48,315.19c-1.81,5.21-7.5,7.97-12.71,6.17l-218.9-75.56c-5.24-1.81-8.01-7.53-6.18-12.76L178.33,86.57c1.82-5.2,7.51-7.95,12.72-6.14Z"/><path class="cls-4" d="M193.64,41.88l210.75,93.87c5.05,2.25,7.31,8.16,5.06,13.21l-135.86,304.75c-2.25,5.04-8.15,7.31-13.19,5.07l-211.69-93.88c-5.06-2.25-7.34-8.18-5.07-13.24L180.45,46.92c2.26-5.03,8.16-7.28,13.19-5.04Z"/><path class="cls-4" d="M193.64,41.88l210.75,93.87c5.05,2.25,7.31,8.16,5.06,13.21l-135.86,304.75c-2.25,5.04-8.15,7.31-13.19,5.07l-211.69-93.88c-5.06-2.25-7.34-8.18-5.07-13.24L180.45,46.92c2.26-5.03,8.16-7.28,13.19-5.04Z"/><rect class="cls-8" x="192.37" y="114.84" width="181.37" height="17" transform="translate(74.43 -104.28) rotate(23.95)"/><rect class="cls-8" x="192.37" y="114.84" width="181.37" height="17" transform="translate(74.43 -104.28) rotate(23.95)"/><rect class="cls-8" x="180.37" y="141.84" width="181.37" height="17" transform="translate(84.35 -97.08) rotate(23.95)"/><rect class="cls-8" x="180.37" y="141.84" width="181.37" height="17" transform="translate(84.35 -97.08) rotate(23.95)"/><rect class="cls-8" x="167.37" y="170.84" width="181.37" height="17" transform="translate(95 -89.31) rotate(23.95)"/><rect class="cls-8" x="167.37" y="170.84" width="181.37" height="17" transform="translate(95 -89.31) rotate(23.95)"/><rect class="cls-8" x="81.8" y="350.66" width="101.67" height="17" transform="translate(157.2 -22.92) rotate(23.95)"/><rect class="cls-8" x="81.8" y="350.66" width="101.67" height="17" transform="translate(157.2 -22.92) rotate(23.95)"/><path class="cls-5" d="M506.35,224.5c-18.52-9.12-30,5.97-30,5.97,0,0-9.69-16.3-29.13-9.36-19.44,6.94-15.26,29.89-15.26,29.89,0,0,1.32,8.86,11,18.94,7.31,7.61,20.38,20.13,26.35,25.82,1.8,1.72,4.58,1.88,6.57.38,6.58-4.96,21-15.92,29.13-22.64,10.76-8.9,13.09-17.56,13.09-17.56,0,0,6.77-22.32-11.75-31.43Z"/><path class="cls-7" d="M504.43,222.78c-18.52-9.12-30,5.97-30,5.97,0,0-9.69-16.3-29.13-9.36s-15.26,29.89-15.26,29.89c0,0,1.32,8.86,11,18.94,7.31,7.61,20.38,20.13,26.35,25.82,1.8,1.72,4.58,1.88,6.57.38,6.58-4.96,21-15.92,29.13-22.64,10.76-8.9,13.09-17.56,13.09-17.56,0,0,6.77-22.32-11.75-31.43Z"/><path class="cls-5" d="M506.35,224.5c-18.52-9.12-30,5.97-30,5.97,0,0-9.69-16.3-29.13-9.36-19.44,6.94-15.26,29.89-15.26,29.89,0,0,1.32,8.86,11,18.94,7.31,7.61,20.38,20.13,26.35,25.82,1.8,1.72,4.58,1.88,6.57.38,6.58-4.96,21-15.92,29.13-22.64,10.76-8.9,13.09-17.56,13.09-17.56,0,0,6.77-22.32-11.75-31.43Z"/><path class="cls-7" d="M504.43,222.78c-18.52-9.12-30,5.97-30,5.97,0,0-9.69-16.3-29.13-9.36s-15.26,29.89-15.26,29.89c0,0,1.32,8.86,11,18.94,7.31,7.61,20.38,20.13,26.35,25.82,1.8,1.72,4.58,1.88,6.57.38,6.58-4.96,21-15.92,29.13-22.64,10.76-8.9,13.09-17.56,13.09-17.56,0,0,6.77-22.32-11.75-31.43Z"/><path class="cls-5" d="M418.85,280.96c-41.23-8.23-55.91,27.49-55.91,27.49,0,0-27.61-27-62.22-3.14-34.61,23.86-14.36,66.82-14.36,66.82,0,0,7.25,16.75,31.58,31.5,18.37,11.14,50.67,28.94,65.4,36.99,4.45,2.43,10,1.29,13.12-2.71,10.34-13.22,32.98-42.34,45.44-59.83,16.51-23.17,16.55-41.42,16.55-41.42,0,0,1.62-47.47-39.61-55.69Z"/><path class="cls-3" d="M414.18,278.57c-41.23-8.23-55.91,27.49-55.91,27.49,0,0-27.61-27-62.22-3.14-34.61,23.86-14.36,66.82-14.36,66.82,0,0,7.25,16.75,31.58,31.5,18.37,11.14,50.67,28.94,65.4,36.99,4.45,2.43,10,1.29,13.12-2.71,10.34-13.22,32.98-42.34,45.44-59.83,16.51-23.17,16.55-41.42,16.55-41.42,0,0,1.62-47.47-39.61-55.69Z"/><path class="cls-5" d="M418.85,280.96c-41.23-8.23-55.91,27.49-55.91,27.49,0,0-27.61-27-62.22-3.14-34.61,23.86-14.36,66.82-14.36,66.82,0,0,7.25,16.75,31.58,31.5,18.37,11.14,50.67,28.94,65.4,36.99,4.45,2.43,10,1.29,13.12-2.71,10.34-13.22,32.98-42.34,45.44-59.83,16.51-23.17,16.55-41.42,16.55-41.42,0,0,1.62-47.47-39.61-55.69Z"/><path class="cls-6" d="M414.18,278.57c-41.23-8.23-55.91,27.49-55.91,27.49,0,0-27.61-27-62.22-3.14-34.61,23.86-14.36,66.82-14.36,66.82,0,0,7.25,16.75,31.58,31.5,18.37,11.14,50.67,28.94,65.4,36.99,4.45,2.43,10,1.29,13.12-2.71,10.34-13.22,32.98-42.34,45.44-59.83,16.51-23.17,16.55-41.42,16.55-41.42,0,0,1.62-47.47-39.61-55.69Z"/></svg>