<?xml version="1.0" encoding="UTF-8"?><svg id="Layer_1" xmlns="http://www.w3.org/2000/svg" xmlns:xlink="http://www.w3.org/1999/xlink" viewBox="0 0 550 550"><defs><style>.cls-1{fill:url(#linear-gradient-2);}.cls-2{fill:url(#linear-gradient-3);filter:url(#drop-shadow-3);}.cls-3{fill:#fff;filter:url(#drop-shadow-1);}.cls-4{fill:#392210;}.cls-5{fill:#ddd;}.cls-6{fill:#d6e7fb;}.cls-7{fill:url(#linear-gradient);}</style><filter id="drop-shadow-1" x="98" y="86" width="437" height="427" filterUnits="userSpaceOnUse"><feOffset dx="7" dy="7"/><feGaussianBlur result="blur" stdDeviation="5"/><feFlood flood-color="#000" flood-opacity=".04"/><feComposite in2="blur" operator="in"/><feComposite in="SourceGraphic"/></filter><linearGradient id="linear-gradient" x1="237.82" y1="188.9" x2="260.13" y2="211.21" gradientUnits="userSpaceOnUse"><stop offset="0" stop-color="#3f1c00"/><stop offset=".53" stop-color="#3d1c00"/><stop offset=".71" stop-color="#361e03"/><stop offset=".84" stop-color="#2c2207"/></linearGradient><linearGradient id="linear-gradient-2" x1="300.04" y1="198.69" x2="322.35" y2="220.99" xlink:href="#linear-gradient"/><linearGradient id="linear-gradient-3" x1="68.29" y1="271.98" x2="190.38" y2="149.89" gradientUnits="userSpaceOnUse"><stop offset="0" stop-color="#6386ff"/><stop offset=".49" stop-color="#6486ff"/><stop offset=".67" stop-color="#6b8aff"/><stop offset=".76" stop-color="#738eff"/></linearGradient><filter id="drop-shadow-3" x="35.57" y="116.57" width="200" height="201" filterUnits="userSpaceOnUse"><feOffset dx="6.27" dy="6.27"/><feGaussianBlur result="blur-2" stdDeviation="4.48"/><feFlood flood-color="#000" flood-opacity=".04"/><feComposite in2="blur-2" operator="in"/><feComposite in="SourceGraphic"/></filter></defs><path class="cls-3" d="M505.27,279.49c-1.4-4.27-5.37-6.9-9.48-6.22-12.58,2.07-24.08,10.79-32.31,22-5.07-46.45-17.04-90.09-43.85-121.96-2.31-2.95-4.73-5.8-7.28-8.55-1.5-10.57-4.34-20.95-8.48-30.79-2.91-6.9-6.56-13.7-12.16-18.67-14.19-12.59-36.3-9.95-53.88-2.85-7.24,2.92-14.24,6.49-20.83,10.68-9-1.74-17.83-2.58-26.48-2.6-6.64-6.77-14.27-12.6-22.48-17.38-13.99-8.16-32.35-13.1-45.88-4.21-5.35,3.51-9.27,8.81-12.57,14.28-8.04,13.33-13.1,28.45-14.69,43.94-53.75,44.61-87.96,123.06-88.36,196.01-.41,74.64,59.42,135.73,134.05,136.97,16.01.27,32.01.26,47.74.56,42.02-4.38,118.39,6.43,154.12-22.1,25.58-6.47,48.58-26.27,59.47-52.67,9.37-22.73,10.02-48.36,10.12-73.17.09-21.38-.24-43.39-6.76-63.27Z"/><circle class="cls-7" cx="248.97" cy="200.05" r="15.77"/><circle class="cls-1" cx="311.19" cy="209.84" r="15.77"/><circle class="cls-2" cx="129.33" cy="210.93" r="86.33"/><ellipse class="cls-4" cx="275.52" cy="221.91" rx="8.02" ry="13.28" transform="translate(23.64 470.33) rotate(-83.45)"/><path class="cls-5" d="M340.26,326.13c-.1,0-.2-.01-.3-.03-15.13-3.28-29.64-8.8-43.11-16.42-7.86-4.44-17.6-10.81-23.23-20.78-5.81-10.28-5.3-22.82,1.25-30.49,9.86-11.54,27.85-8.63,35.12-6.85,17,4.18,32.1,12.69,44.63,20.47.66.41.86,1.27.45,1.93-.41.66-1.27.86-1.92.45-12.34-7.66-27.2-16.05-43.82-20.13-6.77-1.66-23.48-4.42-32.33,5.95-6.77,7.93-5.24,19.71-.95,27.3,5.3,9.37,14.63,15.46,22.17,19.72,13.23,7.48,27.47,12.9,42.33,16.12.75.16,1.23.91,1.07,1.66-.14.66-.72,1.1-1.37,1.1Z"/><path class="cls-6" d="M116.6,185.43l-2.18,5.28c-.98,2.36-.73,5.06.66,7.21l3.11,4.79c3.51,5.41-.71,12.49-7.13,11.98l-5.69-.45c-2.55-.2-5.04.87-6.65,2.86l-3.59,4.44c-4.06,5.01-12.09,3.19-13.6-3.08l-1.33-5.55c-.6-2.49-2.38-4.52-4.77-5.44l-5.33-2.05c-6.02-2.31-6.77-10.52-1.28-13.89l4.87-2.98c2.18-1.34,3.57-3.66,3.7-6.22l.3-5.7c.34-6.44,7.91-9.69,12.81-5.5l4.34,3.71c1.95,1.66,4.59,2.26,7.06,1.6l5.52-1.48c6.23-1.67,11.66,4.53,9.19,10.48Z"/></svg>