<?xml version="1.0" encoding="UTF-8"?><svg id="Layer_1" xmlns="http://www.w3.org/2000/svg" xmlns:xlink="http://www.w3.org/1999/xlink" viewBox="0 0 550 550"><defs><style>.cls-1{fill:url(#linear-gradient-2);}.cls-2{fill:#ddb2a1;}.cls-3{fill:#fff;}.cls-4{fill:#392210;}.cls-5{fill:#2b8fff;}.cls-6{fill:#91c3ff;}.cls-7{fill:#cad7dd;}.cls-8{fill:#ff4065;}.cls-9{fill:url(#linear-gradient);}</style><linearGradient id="linear-gradient" x1="243.82" y1="231.9" x2="266.13" y2="254.21" gradientUnits="userSpaceOnUse"><stop offset="0" stop-color="#3f1c00"/><stop offset=".53" stop-color="#3d1c00"/><stop offset=".71" stop-color="#361e03"/><stop offset=".84" stop-color="#2c2207"/></linearGradient><linearGradient id="linear-gradient-2" x1="306.04" y1="241.69" x2="328.35" y2="263.99" xlink:href="#linear-gradient"/></defs><circle class="cls-7" cx="275" cy="274" r="202"/><path class="cls-3" d="M93.35,361.87c.28-.59.9-.94,1.41-1.34,1.37-1.08,2.13-2.74,2.85-4.33-2.14-.19-4.29-.27-6.44-.21.06.28.12.55.19.83.77,3.05,2.33,5.77,3.7,8.57,1.2,2.47,2.45,4.91,3.75,7.32,2.59,4.81,5.38,9.52,8.36,14.1,2.97,4.57,6.12,9.02,9.45,13.33s6.82,8.47,10.48,12.49,7.48,7.89,11.45,11.59,8.1,7.26,12.36,10.63,8.68,6.59,13.21,9.61,9.21,5.88,13.99,8.53,9.71,5.13,14.71,7.39c5.04,2.27,10.17,4.33,15.37,6.18,5.25,1.86,10.58,3.5,15.97,4.91s10.96,2.62,16.51,3.58,11.3,1.7,16.99,2.19,11.54.74,17.32.74c77.21,0,144.19-43.75,177.52-107.82-1.65-57.73-9.65-115.71-38.39-157.67.26-14.8-2.12-29.64-7.04-43.6-2.49-7.07-5.73-14.07-11.03-19.36-13.41-13.41-35.64-12.09-53.62-6.05-7.92,2.66-15.61,6.08-22.86,10.24-4.59-.85-9.33-1.56-14.23-2.13-3.23-.68-6.43-1.24-9.62-1.69-6.44-7.65-14.07-14.31-22.4-19.86-13.48-8.98-31.51-15.01-45.55-6.93-5.55,3.19-9.77,8.24-13.4,13.51-7.38,10.74-12.74,22.85-15.77,35.53-58.78,37.67-98.88,114.75-105.21,189.71,0,.02.02.03.02.05"/><circle class="cls-9" cx="254.97" cy="243.05" r="15.77"/><circle class="cls-1" cx="317.19" cy="252.84" r="15.77"/><ellipse class="cls-4" cx="281.52" cy="264.91" rx="8.02" ry="13.28" transform="translate(-13.76 514.39) rotate(-83.45)"/><path class="cls-3" d="M107.66,328.83c-18.89-18.99-34.86-41.74-43.77-67.59-3.32-9.64-9.58-18.87-8.21-29.79,1.23-9.77,11.4-18,19.45-22.27,10.95-5.81,26.54-13.05,35.86-5.17,5.97,5.05,6.83,12.28,7.31,17.61,4.31,6.99,8.16,12.89,11.16,18.24,22.39,30.19-6.39,61.46-21.81,88.98Z"/><path class="cls-6" d="M252.49,285.07l-27.49-13.07-22.24-12.6-141.92,22.71c-3.13.5-4.94,3.83-3.66,6.73l34.45,69.12s9.83,19.73,15.38,28.05c8,12,26,33,26,33l139.71-14.62,17.29-14.38,9.41-16.95-46.92-87.97Z"/><polygon class="cls-5" points="202.76 259.4 221.46 292.77 252.49 285.07 202.76 259.4"/><path class="cls-8" d="M95.37,236.89l-17.4-9.92,35.01-61.41s3.51.19,9.31,3.5c4.78,2.72,8.09,6.42,8.09,6.42l-35.01,61.41Z"/><polygon class="cls-2" points="77.97 226.97 76.57 248.39 77.14 248.65 77.69 248.99 95.37 236.89 77.97 226.97"/><path d="M79.31,245.36l-2.43-1.39-.35,5.03c-.02.33.34.54.61.35l4.18-2.85-.61-.35-1.39-.79Z"/><path class="cls-3" d="M348.68,397.84c-26.32,10.85-54.97,17.47-83.52,16.15-10.64-.49-22.17,1.98-32.02-3.5-8.8-4.91-12.26-17.79-12.85-27.13-.81-12.71-.97-30.41,10.59-36.33,7.41-3.8,14.69-1.85,19.99-.29,8.55-1.46,15.84-2.9,22.25-3.73,38.53-9.93,55.95,29.57,75.55,54.84Z"/></svg>