<svg width="78" height="67" viewBox="0 0 78 67" fill="none" xmlns="http://www.w3.org/2000/svg">
<path d="M38.188 55.8781L33.498 53.7381C33.378 53.6781 33.248 53.6581 33.108 53.6481C21.708 53.4781 12.558 43.8481 13.188 32.2681C13.738 22.2781 22.868 13.4281 32.868 13.1681C40.028 12.9781 46.388 16.5381 50.128 22.0181C50.488 22.5481 51.238 22.5881 51.688 22.1281C53.558 20.1981 56.158 19.0581 59.008 19.0581C59.998 19.0581 60.958 19.1981 61.868 19.4581C62.708 19.6981 63.448 18.8081 63.038 18.0281C57.008 6.45809 44.428 -1.17191 30.238 0.148085C14.118 1.63809 1.24799 14.8081 0.0879933 30.9481C-1.31201 50.4781 14.178 66.8081 33.408 66.8081C37.948 66.8081 42.278 65.8881 46.238 64.2381C46.808 63.9981 47.018 63.2981 46.708 62.7681C44.248 58.5681 42.218 57.5681 38.188 55.8681V55.8781Z" fill="white"/>
<path d="M61.3281 28.8181L61.9381 30.4681C63.9781 35.9781 68.3181 40.3181 73.8281 42.3581L75.4781 42.9681C77.8981 43.8681 77.8981 47.2881 75.4781 48.1881L73.8281 48.7981C68.3181 50.8381 63.9781 55.178 61.9381 60.688L61.3281 62.3381C60.4281 64.7581 57.0081 64.7581 56.1081 62.3381L55.4981 60.688C53.4581 55.178 49.1181 50.8381 43.6081 48.7981L41.9581 48.1881C39.5381 47.2881 39.5381 43.8681 41.9581 42.9681L43.6081 42.3581C49.1181 40.3181 53.4581 35.9781 55.4981 30.4681L56.1081 28.8181C57.0081 26.3981 60.4281 26.3981 61.3281 28.8181Z" fill="white"/>
</svg>
