<svg width="87" height="18" viewBox="0 0 323 67" fill="none" xmlns="http://www.w3.org/2000/svg">
<g clip-path="url(#clip0_1769_24)">
<path d="M38.1899 55.88L33.4999 53.74C33.3799 53.68 33.2499 53.66 33.1099 53.65C21.7099 53.48 12.5599 43.85 13.1899 32.27C13.7399 22.28 22.8699 13.43 32.8699 13.17C40.0299 12.98 46.3899 16.54 50.1299 22.02C50.4899 22.55 51.2399 22.59 51.6899 22.13C53.5599 20.2 56.1599 19.06 59.0099 19.06C59.9999 19.06 60.9599 19.2 61.8699 19.46C62.7099 19.7 63.4499 18.81 63.0399 18.03C57.0099 6.46004 44.4299 -1.16996 30.2399 0.150038C14.1199 1.64004 1.24995 14.81 0.0899464 30.95C-1.31005 50.48 14.1799 66.81 33.4099 66.81C37.9499 66.81 42.2799 65.89 46.2399 64.24C46.8099 64 47.0199 63.3 46.7099 62.77C44.2499 58.57 42.2199 57.57 38.1899 55.87V55.88Z" fill="white"/>
<path d="M61.33 28.82L61.94 30.47C63.98 35.98 68.32 40.32 73.83 42.36L75.48 42.97C77.9 43.87 77.9 47.29 75.48 48.19L73.83 48.8C68.32 50.84 63.98 55.18 61.94 60.69L61.33 62.34C60.43 64.76 57.01 64.76 56.11 62.34L55.5 60.69C53.46 55.18 49.12 50.84 43.61 48.8L41.96 48.19C39.54 47.29 39.54 43.87 41.96 42.97L43.61 42.36C49.12 40.32 53.46 35.98 55.5 30.47L56.11 28.82C57.01 26.4 60.43 26.4 61.33 28.82Z" fill="white"/>
<path d="M154.45 63.99C149.74 63.99 145.52 62.93 141.77 60.81C138.02 58.69 135.1 55.83 132.99 52.23C130.91 48.63 129.87 44.71 129.87 40.47C129.87 36.23 130.86 32.23 132.84 28.63C134.84 25.01 137.63 22.14 141.19 20.01C144.75 17.86 148.8 16.79 153.32 16.79C158.21 16.79 162.45 17.8 166.04 19.82C169.63 21.84 172.36 24.64 174.23 28.21C176.13 31.78 177.08 35.84 177.08 40.39C177.08 41.39 177.03 42.38 176.92 43.35C176.87 43.82 176.61 44.74 176.61 44.74H143.48C144.34 47.24 145.81 49.19 147.89 50.59C149.97 51.99 152.34 52.69 154.99 52.69C156.68 52.69 158.2 52.47 159.55 52.02C160.93 51.55 162.05 50.99 163.35 50.12C163.69 49.87 164.93 49.04 164.93 49.04C164.93 49.04 165.94 50.54 166.28 50.99L168.31 53.59C170.56 56.62 171.47 57.92 171.47 57.92C171.47 57.92 170.67 58.6 170.25 58.93C168.09 60.55 165.67 61.82 162.99 62.71C160.34 63.58 157.49 64.02 154.45 64.02V63.99ZM163.97 35.36C163.24 32.89 161.99 30.99 160.23 29.66C158.46 28.34 156.3 27.67 153.75 27.67C151.2 27.67 149.08 28.34 147.23 29.69C145.41 31.04 144.12 32.92 143.37 35.35H163.97V35.36Z" fill="white"/>
<path d="M300.37 63.99C295.66 63.99 291.43 62.93 287.69 60.81C283.94 58.69 281.02 55.83 278.91 52.23C276.83 48.63 275.79 44.71 275.79 40.47C275.79 36.23 276.78 32.23 278.76 28.63C280.76 25.01 283.55 22.14 287.11 20.01C290.67 17.86 294.72 16.79 299.24 16.79C304.13 16.79 308.37 17.8 311.96 19.82C315.55 21.84 318.28 24.64 320.15 28.21C322.05 31.78 323 35.84 323 40.39C323 41.39 322.95 42.38 322.84 43.35C322.79 43.82 322.53 44.74 322.53 44.74H289.4C290.26 47.24 291.73 49.19 293.81 50.59C295.89 51.99 298.26 52.69 300.91 52.69C302.6 52.69 304.12 52.47 305.47 52.02C306.85 51.55 307.97 50.99 309.27 50.12C309.61 49.87 310.85 49.04 310.85 49.04C310.85 49.04 311.86 50.54 312.2 50.99L314.23 53.59C316.48 56.62 317.38 57.92 317.38 57.92C317.38 57.92 316.58 58.6 316.16 58.93C314 60.55 311.58 61.82 308.9 62.71C306.25 63.58 303.4 64.02 300.36 64.02L300.37 63.99ZM309.89 35.36C309.16 32.89 307.91 30.99 306.14 29.66C304.37 28.34 302.21 27.67 299.66 27.67C297.11 27.67 294.99 28.34 293.14 29.69C291.32 31.04 290.03 32.92 289.28 35.35H309.88L309.89 35.36Z" fill="white"/>
<path d="M97.6801 40.57V3.90002H110.56V40.57C110.56 49.41 115.99 51 116.74 51H126.65V63.99H116.74C108.48 63.99 97.6801 56.18 97.6801 40.57Z" fill="white"/>
<path d="M181.37 40.56V3.90002H194.25V17.7H210.34V30.69H194.25V40.56C194.25 49.4 199.68 50.99 200.43 50.99H210.34V63.98H200.43C192.17 63.98 181.37 56.17 181.37 40.56Z" fill="white"/>
<path d="M216.78 40.57V3.90002H230.13V17.7H246.82V30.69H230.13V40.56C230.13 49.4 235.76 50.99 236.54 50.99H246.82V63.98H236.54C227.97 63.98 216.78 56.17 216.78 40.56V40.57Z" fill="white"/>
<path d="M269.35 26.4399H255.4V63.9899H269.35V26.4399Z" fill="white"/>
<path d="M262.38 2.82996C266.82 2.82996 270.43 6.42996 270.43 10.88C270.43 15.32 266.83 18.93 262.38 18.93C257.94 18.93 254.33 15.33 254.33 10.88C254.33 6.43996 257.93 2.82996 262.38 2.82996Z" fill="white"/>
</g>
<defs>
<clipPath id="clip0_1769_24">
<rect width="323" height="66.82" fill="white"/>
</clipPath>
</defs>
</svg>
