<?xml version="1.0" encoding="UTF-8"?><svg id="Layer_1" xmlns="http://www.w3.org/2000/svg" viewBox="0 0 242 108"><defs><style>.cls-1{fill:#fff;}</style></defs><path class="cls-1" d="M26.68,81.56V25.56h7.36v49.04h27.12v6.96H26.68Z"/><path class="cls-1" d="M100.84,64.44h-30.56c1.04,7.28,5.84,11.68,12.48,11.68,4.8,0,7.92-2.16,9.92-5.36h7.12c-2.4,6.08-8.8,11.68-17.12,11.68-10.88,0-19.44-8.8-19.44-21.04s8.8-20.96,19.36-20.96,18.56,8.72,18.56,20c0,1.68-.08,3.04-.32,4ZM70.2,58.76h24.24c-.8-7.04-5.52-12-11.84-12s-11.36,4.72-12.4,12Z"/><path class="cls-1" d="M111.32,69v-21.36h-6.88v-6.08h3.04c3.12,0,4.88-1.68,4.88-4.8v-6h5.84v10.56h9.12v6.32h-9.12v21.12c0,4.96,2.56,7.2,6.32,7.2,1.04,0,1.92-.16,2.8-.56v6.32c-.96.32-2.24.72-4.16.72-6.72,0-11.84-4.88-11.84-13.44Z"/><path class="cls-1" d="M138.04,69v-21.36h-6.88v-6.08h3.04c3.12,0,4.88-1.68,4.88-4.8v-6h5.84v10.56h9.12v6.32h-9.12v21.12c0,4.96,2.56,7.2,6.32,7.2,1.04,0,1.92-.16,2.8-.56v6.32c-.96.32-2.24.72-4.16.72-6.72,0-11.84-4.88-11.84-13.44Z"/><path class="cls-1" d="M161.24,30.92c0-2.56,1.92-4.32,4.32-4.32s4.4,1.76,4.4,4.32-1.92,4.4-4.4,4.4-4.32-1.92-4.32-4.4ZM162.12,81.56v-40.24h6.88v40.24h-6.88Z"/><path class="cls-1" d="M215,64.44h-30.56c1.04,7.28,5.84,11.68,12.48,11.68,4.8,0,7.92-2.16,9.92-5.36h7.12c-2.4,6.08-8.8,11.68-17.12,11.68-10.88,0-19.44-8.8-19.44-21.04s8.8-20.96,19.36-20.96,18.56,8.72,18.56,20c0,1.68-.08,3.04-.32,4ZM184.36,58.76h24.24c-.8-7.04-5.52-12-11.84-12s-11.36,4.72-12.4,12Z"/></svg>