<svg xmlns="http://www.w3.org/2000/svg" width="14" height="14" fill="none" overflow="visible"><g><path d="M 0 14 L 0 0 L 14 0 L 14 14 Z" fill="transparent"></path><path d="M 4.877 0.46 C 3.478 0.946 2.272 1.867 1.435 3.088 C 0.599 4.31 0.176 5.768 0.229 7.247 C 0.282 8.727 0.808 10.15 1.73 11.309 C 2.652 12.468 3.921 13.3 5.351 13.684 C 6.51 13.983 7.725 13.996 8.89 13.722 C 9.946 13.485 10.922 12.978 11.723 12.25 C 12.556 11.469 13.161 10.476 13.473 9.378 C 13.811 8.183 13.872 6.927 13.649 5.705 L 7.139 5.705 L 7.139 8.405 L 10.909 8.405 C 10.834 8.836 10.672 9.247 10.434 9.614 C 10.196 9.981 9.887 10.296 9.524 10.54 C 9.064 10.845 8.545 11.05 8.001 11.142 C 7.455 11.244 6.895 11.244 6.349 11.142 C 5.796 11.028 5.273 10.799 4.813 10.472 C 4.073 9.948 3.518 9.205 3.227 8.347 C 2.93 7.474 2.93 6.527 3.227 5.654 C 3.434 5.041 3.777 4.484 4.231 4.023 C 4.749 3.486 5.406 3.101 6.128 2.913 C 6.851 2.724 7.612 2.738 8.327 2.953 C 8.885 3.125 9.396 3.424 9.819 3.828 C 10.244 3.405 10.668 2.981 11.092 2.556 C 11.311 2.327 11.549 2.11 11.764 1.876 C 11.12 1.276 10.363 0.809 9.538 0.502 C 8.034 -0.044 6.39 -0.058 4.877 0.46 Z" fill="rgb(255,255,255)"></path><path d="M 4.877 0.46 C 6.39 -0.059 8.034 -0.045 9.537 0.501 C 10.363 0.81 11.119 1.279 11.763 1.881 C 11.545 2.115 11.314 2.334 11.091 2.562 C 10.666 2.985 10.242 3.407 9.819 3.828 C 9.396 3.424 8.885 3.125 8.327 2.953 C 7.612 2.737 6.851 2.722 6.128 2.91 C 5.406 3.098 4.749 3.482 4.23 4.018 C 3.776 4.479 3.433 5.037 3.225 5.649 L 0.958 3.894 C 1.77 2.284 3.175 1.053 4.877 0.46 Z" fill="rgb(227,54,41)"></path><path d="M 0.357 5.633 C 0.478 5.029 0.681 4.444 0.958 3.894 L 3.225 5.654 C 2.929 6.527 2.929 7.474 3.225 8.348 C 2.47 8.931 1.714 9.517 0.958 10.106 C 0.264 8.724 0.052 7.149 0.357 5.633 Z" fill="rgb(248,189,0)"></path><path d="M 7.139 5.704 L 13.649 5.704 C 13.872 6.926 13.811 8.182 13.473 9.377 C 13.161 10.475 12.556 11.468 11.723 12.249 C 10.991 11.678 10.256 11.111 9.524 10.54 C 9.887 10.296 10.197 9.98 10.435 9.613 C 10.673 9.246 10.834 8.834 10.909 8.403 L 7.139 8.403 C 7.138 7.504 7.139 6.604 7.139 5.704 Z" fill="rgb(88,125,189)"></path><path d="M 0.957 10.106 C 1.713 9.523 2.469 8.937 3.224 8.347 C 3.517 9.205 4.072 9.949 4.813 10.472 C 5.274 10.798 5.799 11.024 6.353 11.137 C 6.898 11.238 7.458 11.238 8.004 11.137 C 8.548 11.044 9.067 10.84 9.528 10.535 C 10.259 11.106 10.994 11.672 11.726 12.243 C 10.925 12.972 9.949 13.479 8.893 13.717 C 7.728 13.991 6.513 13.978 5.354 13.678 C 4.437 13.434 3.581 13.002 2.838 12.411 C 2.053 11.787 1.411 11.001 0.957 10.106 Z" fill="rgb(49,159,67)"></path></g></svg>