<svg width="12" height="14" viewBox="0 0 12 14" fill="none" xmlns="http://www.w3.org/2000/svg">
<g clip-path="url(#clip0_2282_2)">
<path d="M10.667 5.6H11.333C11.702 5.6 12 5.913 12 6.3V13.3C12 13.687 11.702 14 11.333 14H0.667C0.298 14 0 13.687 0 13.3V6.3C0 5.913 0.298 5.6 0.667 5.6H1.333V4.9C1.333 2.194 3.423 0 6 0C8.577 0 10.667 2.194 10.667 4.9V5.6ZM9.333 5.6V4.9C9.333 2.967 7.841 1.4 6 1.4C4.159 1.4 2.667 2.967 2.667 4.9V5.6H9.333Z" fill="white" fill-opacity="0.5"/>
</g>
<defs>
<clipPath id="clip0_2282_2">
<rect width="12" height="14" fill="white"/>
</clipPath>
</defs>
</svg>
