<svg viewBox="0 0 24 24" fill="none" xmlns="http://www.w3.org/2000/svg">
<path d="M20.483 13.844L21.745 14.566C21.903 14.656 22 14.819 22 14.995C22 15.171 21.903 15.334 21.745 15.425L12 21L2.255 15.425C2.097 15.334 2 15.171 2 14.995C2 14.819 2.097 14.656 2.255 14.566L3.517 13.844L12 18.699L20.483 13.844Z" fill="currentColor"/>
<path d="M12.539 3.14201L21.745 8.40901C21.903 8.49901 22 8.66201 22 8.83801C22 9.01401 21.903 9.17701 21.745 9.26801L12 14.843L2.255 9.26901C2.097 9.17801 2 9.01501 2 8.83901C2 8.66301 2.097 8.50001 2.255 8.41001L11.459 3.14301C11.792 2.95201 12.208 2.95201 12.541 3.14301L12.539 3.14201Z" fill="currentColor"/>
</svg>
