<svg width="16" height="16" viewBox="0 0 16 16" fill="none" xmlns="http://www.w3.org/2000/svg">
<path d="M11.7242 10.4802C11.3013 10.4802 10.9585 10.1375 10.9585 9.71462V5.25634C10.9585 3.75375 9.73608 2.53125 8.23346 2.53125C6.73086 2.53125 5.50836 3.75372 5.50836 5.25634V7.84937C5.50836 8.27222 5.16558 8.615 4.74274 8.615C4.31989 8.615 3.97711 8.27222 3.97711 7.84937V5.25634C3.97711 2.90938 5.88649 1 8.23346 1C10.5804 1 12.4898 2.90938 12.4898 5.25634V9.71462C12.4898 10.1375 12.147 10.4802 11.7242 10.4802Z" fill="#B1B4B5"/>
<path d="M12.8918 15.1166H3.575C2.70516 15.1166 2 14.4114 2 13.5416V8.15508C2 7.28523 2.70516 6.58008 3.575 6.58008H12.8918C13.7617 6.58008 14.4668 7.28523 14.4668 8.15508V13.5415C14.4668 14.4114 13.7617 15.1166 12.8918 15.1166Z" fill="#FFB636"/>
</svg>
