<svg xmlns="http://www.w3.org/2000/svg" width="24" height="24" fill="none"><path d="M 14.759 5.804 C 14.172 5.207 13.473 4.732 12.702 4.406 C 11.931 4.081 11.102 3.911 10.265 3.907 C 9.428 3.903 8.598 4.065 7.823 4.384 C 7.049 4.702 6.346 5.171 5.754 5.763 C 5.161 6.354 4.693 7.057 4.374 7.831 C 4.055 8.605 3.893 9.435 3.897 10.271 C 3.901 11.108 4.071 11.936 4.396 12.707 C 4.722 13.478 5.197 14.177 5.795 14.763 C 6.987 15.933 8.594 16.585 10.265 16.578 C 11.936 16.57 13.536 15.903 14.718 14.722 C 15.9 13.541 16.567 11.942 16.575 10.271 C 16.582 8.601 15.93 6.996 14.759 5.804 Z M 4.416 4.426 C 5.911 2.932 7.92 2.066 10.033 2.004 C 12.146 1.941 14.203 2.688 15.783 4.092 C 17.363 5.495 18.347 7.448 18.534 9.553 C 18.72 11.657 18.096 13.753 16.788 15.412 L 22 20.622 L 20.621 22 L 15.409 16.79 C 13.748 18.093 11.652 18.713 9.55 18.525 C 7.447 18.336 5.495 17.353 4.093 15.776 C 2.691 14.199 1.943 12.146 2.003 10.037 C 2.063 7.928 2.926 5.921 4.416 4.426 Z" fill="rgba(255, 255, 255, 0.4)"></path></svg>